<svg xmlns="http://www.w3.org/2000/svg" width="85" height="75" viewBox="0 0 85 75">
  <defs>
    <filter id="jh_logoconcept4_whitebg-a" width="123.8%" height="129.6%" x="-12.7%" y="-11.1%" filterUnits="objectBoundingBox">
      <feOffset dy="2" in="SourceAlpha" result="shadowOffsetOuter1"/>
      <feGaussianBlur in="shadowOffsetOuter1" result="shadowBlurOuter1" stdDeviation="2"/>
      <feColorMatrix in="shadowBlurOuter1" result="shadowMatrixOuter1" values="0 0 0 0 0   0 0 0 0 0   0 0 0 0 0  0 0 0 0.255576313 0"/>
      <feMerge>
        <feMergeNode in="shadowMatrixOuter1"/>
        <feMergeNode in="SourceGraphic"/>
      </feMerge>
    </filter>
  </defs>
  <g fill="none" fill-rule="evenodd">
    <g filter="url(#jh_logoconcept4_whitebg-a)" transform="translate(11 11)">
      <g transform="translate(57 30)">
        <circle cx="3" cy="3" r="2.34" fill="#F00"/>
        <circle cx="3" cy="2.417" r="1.755" fill="#E00000" fill-opacity=".25" style="mix-blend-mode:darken"/>
      </g>
      <path stroke="#08080D" stroke-width="3" d="M8.53312816,23.5535454 C6.2278984,18.5813076 3.71614802,15.3707326 5.51292232,9.3724809 C7.2193353,3.67588644 10.9987265,-3.22893785 15.0845492,3.15828165 C20.6520461,11.8617491 19.0048951,39.3757124 13,48 C12.3389144,48.9494575 10,52 5,53 C4.12774111,53.1744518 3.12774111,52.8411184 2,52 C-5.09707247,46.3475953 21.1294603,23.8948241 28.2369393,20.1458303"/>
      <g stroke="#08080D" transform="translate(26 3)">
        <path stroke-width="3" d="M25.1102445,5.56673629 C22.2423782,12.6637707 8.72683707,32.5107399 24.3448397,31.8552469"/>
        <path stroke-width="2" d="M8.78035534,17.2657399 C13.8044758,16.2528759 18.8285963,15.2400119 23.8527168,14.2271479"/>
        <path stroke-width="3" d="M2.06921469,4.75935487 C4.58776139,-1.33177819 14.2952621,-1.44222632 11.373222,7.3897048 C8.38687329,16.4160099 4.23346792,25.0133753 0.663590887,33.8252105"/>
      </g>
    </g>
  </g>
</svg>
